<?xml version="1.0" standalone="no"?>
<!DOCTYPE svg PUBLIC "-//W3C//DTD SVG 20010904//EN"
 "http://www.w3.org/TR/2001/REC-SVG-20010904/DTD/svg10.dtd">
<svg version="1.0" xmlns="http://www.w3.org/2000/svg"
 width="513.000000pt" height="513.000000pt" viewBox="0 0 513.000000 513.000000"
 preserveAspectRatio="xMidYMid meet">
<metadata>
Created by potrace 1.11, written by Peter Selinger 2001-2013
</metadata>
<g transform="translate(0.000000,513.000000) scale(0.100000,-0.100000)"
fill="#000000" stroke="none">
<path d="M1050 3325 c0 -2 82 -183 181 -402 100 -219 191 -418 202 -443 l20
-45 33 70 c18 39 33 75 34 82 0 7 -75 177 -166 378 l-166 365 -69 0 c-38 0
-69 -2 -69 -5z"/>
<path d="M2480 2500 l0 -830 -95 0 -95 0 0 -110 0 -110 215 0 215 0 0 940 0
940 -120 0 -120 0 0 -830z"/>
<path d="M4378 3095 c-61 -74 -115 -135 -120 -135 -5 0 -32 18 -60 40 -66 53
-195 115 -278 134 -86 21 -241 20 -311 0 -231 -68 -389 -282 -389 -529 0 -150
62 -300 164 -400 70 -68 155 -122 141 -89 -109 251 -74 487 99 660 108 107
219 154 372 154 146 0 299 -52 431 -147 l73 -52 135 162 135 162 -39 35 c-43
39 -207 140 -228 140 -7 0 -63 -61 -125 -135z"/>
<path d="M850 2267 l0 -597 -95 0 -95 0 0 -110 0 -110 215 0 215 0 0 441 0
442 -112 256 c-61 141 -115 260 -120 266 -4 5 -8 -259 -8 -588z"/>
<path d="M1830 2359 l-216 -494 -87 -3 c-48 -1 -87 -5 -87 -8 0 -3 21 -54 47
-115 l46 -109 159 2 159 3 102 230 102 230 3 290 c1 160 -1 330 -5 379 l-8 88
-215 -493z"/>
<path d="M4510 2150 l0 -260 -38 -24 c-123 -77 -322 -156 -482 -191 -106 -23
-318 -31 -421 -15 -107 15 -244 60 -336 109 -46 24 -69 32 -63 22 14 -26 151
-155 202 -190 72 -48 202 -107 303 -137 112 -33 337 -44 474 -24 181 27 412
109 544 193 l57 37 0 370 0 370 -120 0 -120 0 0 -260z"/>
</g>
</svg>
