<?xml version="1.0" standalone="no"?>
<!DOCTYPE svg PUBLIC "-//W3C//DTD SVG 20010904//EN"
 "http://www.w3.org/TR/2001/REC-SVG-20010904/DTD/svg10.dtd">
<svg version="1.0" xmlns="http://www.w3.org/2000/svg"
 width="16.000000pt" height="16.000000pt" viewBox="0 0 16.000000 16.000000"
 preserveAspectRatio="xMidYMid meet">
<metadata>
Created by potrace 1.11, written by Peter Selinger 2001-2013
</metadata>
<g transform="translate(0.000000,16.000000) scale(0.003119,-0.003119)"
fill="#000000" stroke="none">
<path d="M350 2600 l0 -2220 2225 0 2225 0 0 2220 0 2220 -2225 0 -2225 0 0
-2220z m4170 0 l0 -1950 -1945 0 -1945 0 0 1943 c0 1069 3 1947 7 1950 3 4
879 7 1945 7 l1938 0 0 -1950z"/>
<path d="M2200 2580 l0 -270 270 0 270 0 0 270 0 270 -270 0 -270 0 0 -270z"/>
<path d="M3810 2580 l0 -270 270 0 270 0 0 270 0 270 -270 0 -270 0 0 -270z"/>
<path d="M3010 2240 l0 -270 270 0 270 0 0 270 0 270 -270 0 -270 0 0 -270z"/>
<path d="M2200 1830 l0 -270 270 0 270 0 0 270 0 270 -270 0 -270 0 0 -270z"/>
<path d="M3810 1830 l0 -270 270 0 270 0 0 270 0 270 -270 0 -270 0 0 -270z"/>
<path d="M3010 1490 l0 -270 270 0 270 0 0 270 0 270 -270 0 -270 0 0 -270z"/>
<path d="M2200 1080 l0 -270 270 0 270 0 0 270 0 270 -270 0 -270 0 0 -270z"/>
<path d="M3810 1080 l0 -270 270 0 270 0 0 270 0 270 -270 0 -270 0 0 -270z"/>
</g>
</svg>
