<svg version="1" xmlns="http://www.w3.org/2000/svg" width="933.333" height="933.333" viewBox="0 0 700.000000 700.000000"><path d="M124.3 185.1V246H246V124.3H124.2l.1 60.8zM454 185.1V246H575.7l-.1-60.8-.1-60.7-60.7-.1-60.8-.1v60.8zM289 268v61l60.8-.3 60.7-.2.3-60.8.2-60.7H289v61zM124.3 350l-.1 61H246V289H124.3v61zM454 350v61H575.7l-.1-60.8-.1-60.7-60.7-.3-60.8-.2v61zM299.3 371.8l-10.3.3v121.6h122V372h-18.7c-10.4-.1-33.2-.2-50.8-.3-17.6-.1-36.6-.1-42.2.1zM124.3 514.7l.2 60.8 60.8.1 60.7.1V454H124.2l.1 60.7zM454 514.9v60.8l60.8-.1 60.7-.1.1-60.8.1-60.7H454v60.9z"/></svg>